<?xml version="1.0" encoding="utf-8"?>
<!-- Generator: Adobe Illustrator 16.0.0, SVG Export Plug-In . SVG Version: 6.00 Build 0)  -->
<!DOCTYPE svg PUBLIC "-//W3C//DTD SVG 1.1//EN" "http://www.w3.org/Graphics/SVG/1.1/DTD/svg11.dtd">
<svg version="1.1" id="Layer_1" xmlns="http://www.w3.org/2000/svg" xmlns:xlink="http://www.w3.org/1999/xlink" x="0px" y="0px"
	 width="140px" height="40px" viewBox="0 0 140 40" enable-background="new 0 0 140 40" xml:space="preserve">
<path fill="#FFFFFF" d="M50.199,25.391c0.422,0.14,0.886-0.008,1.392-0.443c0.505-0.436,1.011-1.089,1.517-1.96l-0.169-0.929
	c-0.196-0.195-0.435-0.364-0.716-0.506c-0.393-0.14-0.801-0.091-1.222,0.148c-0.422,0.239-0.759,0.682-1.012,1.328
	c-0.225,0.646-0.316,1.18-0.275,1.602C49.757,25.053,49.919,25.307,50.199,25.391 M57.282,4.901
	c-0.506,0.14-0.942,0.702-1.307,1.686c-0.365,0.984-0.653,2.185-0.864,3.604c-0.211,1.42-0.338,2.965-0.38,4.638
	c-0.042,1.672,0.008,3.239,0.148,4.701c0.422-0.956,0.843-2.002,1.265-3.141c0.421-1.138,0.794-2.263,1.117-3.373
	c0.323-1.11,0.597-2.178,0.822-3.204c0.225-1.026,0.351-1.918,0.38-2.677c0.027-0.759-0.05-1.349-0.232-1.771
	C58.048,4.943,57.732,4.788,57.282,4.901z M48.26,21.891c0.281-0.394,0.611-0.717,0.991-0.969c0.379-0.253,0.78-0.436,1.201-0.548
	c0.422-0.112,0.829-0.134,1.223-0.063c0.394,0.07,0.759,0.217,1.096,0.442c-0.112-1.208-0.133-2.494-0.063-3.857
	c0.07-1.363,0.218-2.719,0.443-4.068c0.224-1.35,0.527-2.65,0.906-3.9c0.379-1.251,0.815-2.354,1.307-3.31
	c0.492-0.955,1.047-1.714,1.665-2.276s1.293-0.843,2.024-0.843c0.871,0,1.384,0.527,1.538,1.581
	c0.155,1.053,0.036,2.444-0.358,4.173c-0.393,1.729-1.04,3.696-1.939,5.902c-0.899,2.207-1.981,4.476-3.246,6.809
	c0.197,1.292,0.463,2.354,0.8,3.183c0.688,1.688,1.565,1.367,3.07,1.188c2.708-0.32,7.504-1.996,9.796-2.79
	c1.138-0.394,1.664-1.8,1.721-1.775c0.225,0.098,0.298,0.36,0.212,0.78c-0.094,0.452-0.321,0.786-0.627,1.053
	c-0.976,0.854-6.996,3.322-10.866,4.08c-1.776,0.348-3.285,0.937-4.633-0.616c-0.464-0.534-0.837-1.237-1.117-2.109
	c-0.225,0.338-0.506,0.724-0.844,1.16c-0.337,0.435-0.73,0.815-1.18,1.138c-0.45,0.323-0.928,0.541-1.434,0.654
	c-0.505,0.111-1.011,0-1.517-0.338c-0.703-0.45-1.061-1.139-1.075-2.066C47.34,23.576,47.642,22.706,48.26,21.891z M37.341,19.698
	c0.169-0.112,0.365-0.154,0.59-0.126c0.225,0.028,0.443,0.091,0.654,0.19c0.21,0.098,0.386,0.224,0.526,0.379
	c0.141,0.155,0.211,0.302,0.211,0.443c0,0.309-0.077,0.73-0.232,1.264c-0.154,0.535-0.217,1.14-0.189,1.813
	c0.169-0.394,0.4-0.808,0.695-1.243c0.296-0.436,0.633-0.822,1.012-1.16c0.38-0.337,0.787-0.59,1.223-0.758
	c0.435-0.169,0.864-0.183,1.286-0.043c0.506,0.169,0.864,0.549,1.075,1.139c0.21,0.59,0.372,1.209,0.484,1.854
	c0.113,0.647,0.211,1.224,0.295,1.729c0.085,0.506,0.254,0.758,0.506,0.758c0.253,0,0.485-0.092,0.696-0.273
	c0.211-0.184,0.4-0.415,0.569-0.695c0.169-0.281,0.316-0.576,0.443-0.886c0.126-0.309,0.246-0.575,0.358-0.801
	c0.197-0.478,0.415-0.688,0.654-0.632c0.239,0.056,0.26,0.337,0.063,0.843c-0.084,0.253-0.218,0.61-0.401,1.075
	c-0.182,0.463-0.407,0.92-0.674,1.369c-0.267,0.451-0.597,0.844-0.991,1.181c-0.393,0.338-0.857,0.521-1.391,0.548
	c-0.815,0.057-1.419-0.168-1.813-0.674s-0.667-1.089-0.822-1.75c-0.155-0.66-0.253-1.286-0.295-1.876s-0.133-0.955-0.274-1.097
	c-0.141-0.141-0.309-0.161-0.506-0.063c-0.197,0.098-0.386,0.245-0.569,0.443c-0.183,0.195-0.344,0.428-0.485,0.695
	c-0.14,0.267-0.253,0.498-0.337,0.695c-0.197,0.618-0.302,1.124-0.316,1.518c-0.015,0.394-0.092,0.717-0.232,0.97
	c-0.169,0.28-0.499,0.373-0.991,0.274c-0.492-0.099-0.892-0.373-1.202-0.822c-0.14-0.197-0.231-0.619-0.273-1.266
	c-0.043-0.646-0.05-1.32-0.021-2.023c0.027-0.702,0.098-1.348,0.21-1.939C36.99,20.162,37.144,19.811,37.341,19.698z M28.698,25.811
	c0.394,0.142,0.815,0.015,1.265-0.379c0.449-0.394,0.787-0.914,1.012-1.56c0.196-0.562,0.218-1.054,0.063-1.476
	c-0.154-0.422-0.429-0.702-0.822-0.844c-0.394-0.14-0.787-0.111-1.18,0.086c-0.394,0.195-0.703,0.617-0.928,1.265
	c-0.253,0.646-0.323,1.257-0.211,1.834C28.009,25.313,28.277,25.672,28.698,25.811z M30.806,20.752
	c0.421,0.338,0.717,0.773,0.886,1.307c0.056-0.111,0.105-0.195,0.147-0.252s0.091-0.112,0.147-0.168
	c0.31-0.226,0.675-0.261,1.097-0.106c0.421,0.155,0.716,0.344,0.885,0.569c0.085,0.113,0.12,0.231,0.105,0.358
	c-0.014,0.128-0.042,0.288-0.084,0.485c-0.042,0.195-0.084,0.428-0.126,0.695c-0.043,0.267-0.035,0.582,0.02,0.949
	c0.029,0.309,0.106,0.547,0.233,0.717c0.126,0.168,0.266,0.273,0.421,0.315c0.155,0.042,0.317,0.028,0.485-0.042
	c0.169-0.07,0.324-0.176,0.464-0.316c0.253-0.31,0.484-0.646,0.696-1.012c0.21-0.365,0.358-0.688,0.442-0.97
	c0.113-0.31,0.288-0.442,0.527-0.401c0.239,0.043,0.302,0.26,0.19,0.654c-0.113,0.393-0.253,0.751-0.422,1.075
	c-0.168,0.323-0.435,0.724-0.801,1.2c-0.393,0.479-0.955,0.809-1.686,0.992c-0.731,0.183-1.49,0.035-2.277-0.443
	c-0.421-0.28-0.703-0.745-0.843-1.391c-0.056,0.112-0.168,0.28-0.337,0.506c-0.31,0.393-0.661,0.724-1.054,0.99
	c-0.394,0.268-0.794,0.449-1.202,0.549c-0.407,0.098-0.808,0.111-1.201,0.041c-0.394-0.069-0.759-0.231-1.096-0.484
	c-0.647-0.505-0.991-1.209-1.033-2.107c-0.043-0.899,0.246-1.757,0.864-2.572c0.618-0.814,1.37-1.327,2.255-1.539
	C29.394,20.141,30.159,20.275,30.806,20.752z M23.934,4.985c-0.506,0.113-0.941,0.653-1.307,1.623
	c-0.365,0.97-0.653,2.164-0.864,3.583c-0.211,1.42-0.344,2.952-0.4,4.596c-0.057,1.644-0.028,3.197,0.084,4.658
	c0.534-0.477,1.033-1.187,1.496-2.129c0.464-0.941,0.872-1.967,1.223-3.077c0.351-1.11,0.625-2.235,0.822-3.373
	c0.197-1.138,0.295-2.164,0.295-3.078c0-0.913-0.105-1.636-0.316-2.171C24.757,5.083,24.412,4.873,23.934,4.985z M21.531,20.541
	c0.141,1.378,0.373,2.53,0.696,3.457c0.323,0.928,0.723,1.42,1.201,1.477c0.394,0.056,0.794-0.127,1.202-0.549
	c0.407-0.422,0.724-0.97,0.949-1.644c0.168-0.534,0.358-0.745,0.569-0.632c0.21,0.111,0.274,0.393,0.189,0.843
	c-0.056,0.253-0.175,0.569-0.358,0.948c-0.183,0.38-0.436,0.752-0.759,1.117c-0.323,0.365-0.717,0.675-1.181,0.928
	c-0.463,0.253-0.99,0.379-1.581,0.379c-0.786-0.028-1.426-0.4-1.918-1.117c-0.492-0.717-0.85-1.665-1.075-2.845
	c-0.225-1.181-0.337-2.516-0.337-4.006c0-1.489,0.105-3.014,0.316-4.574s0.513-3.085,0.907-4.574
	c0.393-1.49,0.871-2.818,1.433-3.984c0.562-1.167,1.187-2.108,1.876-2.825c0.689-0.717,1.427-1.075,2.213-1.075
	c0.591,0,1.012,0.351,1.265,1.054c0.253,0.703,0.358,1.616,0.316,2.741c-0.042,1.124-0.217,2.381-0.527,3.773
	c-0.309,1.391-0.716,2.768-1.222,4.131c-0.506,1.363-1.096,2.642-1.771,3.837c-0.674,1.194-1.391,2.157-2.15,2.887L21.531,20.541z
	 M15.755,21.217c-0.224,0.141-0.428,0.365-0.611,0.674c-0.183,0.309-0.33,0.646-0.443,1.013c-0.112,0.364-0.168,0.729-0.168,1.095
	c0,0.366,0.056,0.689,0.168,0.971c0.085,0.225,0.254,0.414,0.507,0.568c0.253,0.155,0.554,0.253,0.906,0.295
	c0.351,0.043,0.723,0.014,1.117-0.084s0.759-0.316,1.096-0.652c0.534-0.506,0.914-1.11,1.138-1.813
	c0.029-0.142,0.099-0.246,0.211-0.315c0.112-0.072,0.211-0.093,0.295-0.063c0.084,0.028,0.155,0.091,0.211,0.188
	c0.056,0.1,0.056,0.246,0,0.443c-0.112,0.393-0.253,0.738-0.421,1.033c-0.169,0.295-0.366,0.597-0.591,0.906
	c-0.421,0.562-0.948,1.047-1.581,1.453c-0.632,0.408-1.265,0.696-1.897,0.865c-0.633,0.169-1.23,0.203-1.792,0.105
	s-0.997-0.358-1.307-0.78c-0.224-0.281-0.358-0.653-0.4-1.117s0-0.948,0.127-1.454c0.126-0.506,0.33-1.019,0.611-1.539
	c0.281-0.52,0.632-0.99,1.054-1.412c-0.337,0.057-0.647,0.078-0.928,0.063c-0.281-0.015-0.534-0.036-0.758-0.063
	c-0.113,0.365-0.218,0.724-0.317,1.076c-0.098,0.35-0.175,0.61-0.232,0.778c-0.14,0.338-0.33,0.485-0.569,0.442
	c-0.239-0.041-0.302-0.246-0.189-0.61c0.084-0.281,0.168-0.591,0.252-0.929c0.084-0.336,0.169-0.659,0.253-0.969
	c-0.533-0.225-0.878-0.535-1.032-0.928c-0.155-0.393-0.205-0.773-0.148-1.138c0.056-0.337,0.183-0.632,0.379-0.885
	c0.197-0.253,0.422-0.45,0.675-0.59c0.253-0.141,0.499-0.225,0.738-0.253c0.238-0.029,0.442,0.028,0.611,0.168
	c0.309,0.281,0.436,0.661,0.379,1.138c-0.056,0.478-0.182,0.998-0.379,1.56c0.085,0.084,0.288,0.148,0.611,0.19
	c0.323,0.042,0.808-0.021,1.455-0.19c0.646-0.14,1.047-0.098,1.201,0.127C16.142,20.808,16.064,21.02,15.755,21.217z M4.98,25.395
	c0.477-0.064,0.871-0.323,1.18-0.801c0.309-0.478,0.45-1.025,0.422-1.645c-0.393,0.029-0.765-0.035-1.117-0.189
	c-0.351-0.153-0.524-0.389-0.569-0.695c-0.039-0.256,0-0.463,0.168-0.633c-0.056-0.225-0.231-0.422-0.526-0.589
	c-0.295-0.169-0.596-0.179-0.907-0.043c-0.391,0.173-0.696,0.493-0.906,0.97c-0.21,0.478-0.25,0.996-0.148,1.56
	c0.122,0.673,0.401,1.209,0.864,1.603C3.905,25.324,4.417,25.471,4.98,25.395z M7.847,22.064c0.675,0,2.674-0.217,3.166-0.385
	c0.491-0.168,0.878-0.31,1.159-0.422c0.394-0.141,0.52-0.063,0.379,0.232c-0.14,0.295-0.393,0.541-0.758,0.738
	c-0.197,0.111-0.513,0.238-0.949,0.379s-2.351,0.342-2.913,0.342c-0.028,0.73-0.281,1.42-0.759,2.066
	c-0.477,0.646-1.124,1.121-1.938,1.434c-0.507,0.193-1.027,0.302-1.561,0.316c-0.533,0.014-1.025-0.058-1.475-0.211
	c-0.449-0.154-0.85-0.396-1.202-0.717c-0.351-0.324-0.612-0.71-0.78-1.16c-0.168-0.449-0.238-0.927-0.21-1.433
	c0.027-0.506,0.154-0.998,0.379-1.476s0.534-0.907,0.928-1.286c0.393-0.379,0.855-0.659,1.391-0.822
	c0.476-0.145,0.963-0.141,1.454,0c0.492,0.14,0.86,0.359,1.076,0.675c0.149,0.218,0.21,0.477,0.21,0.76
	c0.253-0.169,0.534-0.253,0.843-0.253h0.085c0.28,0,0.547,0.07,0.8,0.21s0.49,0.365,0.591,0.717L7.847,22.064z"/>
<path fill="#FFFFFF" d="M128.615,18.118c0.168-0.113,0.363-0.155,0.59-0.127c0.225,0.028,0.441,0.092,0.652,0.19
	s0.387,0.225,0.527,0.38c0.141,0.154,0.211,0.302,0.211,0.442c0,0.309-0.078,0.731-0.232,1.265
	c-0.152,0.534-0.217,1.138-0.188,1.813c0.168-0.394,0.398-0.808,0.693-1.244c0.297-0.435,0.635-0.822,1.014-1.159
	c0.379-0.338,0.787-0.591,1.223-0.759c0.436-0.169,0.863-0.183,1.285-0.042c0.506,0.169,0.865,0.548,1.076,1.138
	c0.209,0.59,0.371,1.209,0.482,1.855c0.113,0.646,0.213,1.224,0.297,1.729s0.252,0.758,0.506,0.758s0.482-0.092,0.695-0.274
	c0.211-0.183,0.4-0.414,0.568-0.696c0.168-0.279,0.316-0.574,0.443-0.885c0.125-0.309,0.244-0.576,0.355-0.8
	c0.197-0.479,0.416-0.688,0.654-0.633c0.24,0.056,0.26,0.337,0.064,0.843c-0.084,0.253-0.219,0.612-0.4,1.075
	c-0.184,0.464-0.408,0.92-0.674,1.37c-0.27,0.449-0.6,0.843-0.992,1.181c-0.393,0.337-0.857,0.521-1.391,0.548
	c-0.814,0.057-1.42-0.169-1.814-0.675s-0.666-1.089-0.822-1.749c-0.154-0.661-0.252-1.286-0.295-1.876
	c-0.041-0.59-0.133-0.956-0.273-1.096c-0.141-0.141-0.309-0.162-0.506-0.063c-0.195,0.098-0.387,0.245-0.568,0.442
	c-0.184,0.196-0.346,0.428-0.484,0.696c-0.141,0.267-0.254,0.498-0.338,0.695c-0.195,0.618-0.301,1.123-0.314,1.518
	c-0.016,0.393-0.094,0.716-0.232,0.97c-0.168,0.28-0.498,0.372-0.99,0.272c-0.492-0.098-0.893-0.371-1.201-0.821
	c-0.141-0.196-0.23-0.618-0.273-1.265s-0.051-1.32-0.021-2.023c0.029-0.702,0.098-1.349,0.211-1.939
	C128.266,18.582,128.418,18.229,128.615,18.118 M123.303,23.682c0.479-0.056,0.871-0.322,1.18-0.801
	c0.311-0.478,0.451-1.025,0.424-1.645c-0.395,0.029-0.768-0.035-1.117-0.189c-0.352-0.154-0.541-0.387-0.568-0.696
	c-0.059-0.253,0-0.463,0.168-0.632c-0.057-0.225-0.232-0.421-0.527-0.59c-0.295-0.169-0.598-0.183-0.906-0.043
	c-0.393,0.169-0.695,0.492-0.904,0.97c-0.211,0.479-0.262,0.999-0.148,1.56c0.111,0.675,0.4,1.208,0.863,1.603
	C122.229,23.611,122.74,23.766,123.303,23.682z M126.17,20.351c0.674,0,1.258-0.084,1.75-0.253c0.492-0.168,0.879-0.309,1.158-0.421
	c0.395-0.141,0.521-0.063,0.379,0.232c-0.141,0.295-0.393,0.541-0.758,0.738c-0.195,0.112-0.514,0.239-0.947,0.379
	c-0.438,0.14-0.938,0.21-1.498,0.21c-0.027,0.73-0.281,1.42-0.76,2.066c-0.477,0.646-1.123,1.125-1.938,1.434
	c-0.506,0.197-1.025,0.302-1.561,0.316c-0.533,0.014-1.025-0.057-1.477-0.211c-0.449-0.154-0.85-0.394-1.201-0.717
	c-0.352-0.322-0.611-0.71-0.779-1.16c-0.168-0.449-0.238-0.927-0.211-1.433s0.154-0.998,0.379-1.476
	c0.227-0.478,0.535-0.907,0.928-1.286c0.395-0.379,0.857-0.653,1.393-0.822c0.479-0.14,0.963-0.14,1.453,0
	c0.492,0.141,0.852,0.366,1.076,0.675c0.141,0.224,0.211,0.477,0.211,0.759c0.252-0.169,0.533-0.253,0.842-0.253h0.086
	c0.279,0,0.547,0.07,0.801,0.21c0.252,0.141,0.449,0.38,0.592,0.717L126.17,20.351z M115.547,20.478
	c0.055-0.787-0.156-1.314-0.635-1.581c-0.477-0.267-1.018-0.366-1.621-0.295c-0.605,0.07-1.195,0.274-1.771,0.611
	c-0.576,0.338-0.92,0.731-1.031,1.18c-0.143,0.506-0.078,0.851,0.189,1.033c0.266,0.184,0.639,0.289,1.117,0.316
	c0.477,0.029,1.018,0.036,1.623,0.021c0.604-0.016,1.158,0.014,1.664,0.084c0.506,0.069,0.928,0.238,1.266,0.506
	c0.336,0.267,0.492,0.695,0.463,1.285c-0.027,0.422-0.189,0.893-0.484,1.412c-0.295,0.521-0.682,0.998-1.158,1.434
	c-0.479,0.436-1.025,0.795-1.646,1.074c-0.617,0.283-1.25,0.395-1.895,0.339c-0.646-0.056-1.133-0.269-1.455-0.634
	c-0.324-0.364-0.527-0.737-0.611-1.116c-0.084-0.38-0.057-0.683,0.084-0.906c0.141-0.226,0.338-0.239,0.59-0.043
	c0.254,0.196,0.695,0.289,1.328,0.274s1.273-0.092,1.918-0.23c0.648-0.141,1.217-0.331,1.709-0.568
	c0.49-0.24,0.723-0.514,0.695-0.822c-0.029-0.282-0.205-0.43-0.527-0.443s-0.729,0.035-1.223,0.146
	c-0.492,0.113-1.039,0.232-1.645,0.359c-0.604,0.126-1.174,0.176-1.707,0.146c-0.646-0.027-1.133-0.168-1.455-0.42
	c-0.322-0.254-0.52-0.584-0.59-0.991c-0.07-0.408-0.021-0.864,0.146-1.37c0.17-0.506,0.451-1.04,0.844-1.602
	c0.73-1.012,1.518-1.785,2.361-2.319c0.842-0.534,1.645-0.864,2.402-0.991c0.76-0.126,1.426-0.091,2.002,0.105
	c0.576,0.196,0.947,0.521,1.117,0.969c0.227,0.535,0.238,1.047,0.043,1.539c-0.197,0.492-0.457,0.9-0.781,1.223
	c-0.322,0.323-0.631,0.527-0.926,0.611C115.65,20.899,115.518,20.787,115.547,20.478z M102.309,3.909
	c-0.422,0.113-0.773,0.612-1.055,1.497c-0.281,0.886-0.506,1.989-0.674,3.31c-0.17,1.32-0.295,2.789-0.379,4.405
	c-0.086,1.616-0.127,3.197-0.127,4.743c0.477-0.815,0.928-1.736,1.35-2.762c0.422-1.025,0.793-2.073,1.115-3.14
	c0.324-1.068,0.578-2.108,0.76-3.12c0.184-1.012,0.281-1.904,0.295-2.677s-0.084-1.37-0.295-1.792
	C103.088,3.952,102.758,3.797,102.309,3.909z M101.17,22.797c0.084-0.141,0.309-0.345,0.676-0.611
	c0.365-0.268,0.736-0.541,1.117-0.822c0.379-0.281,0.709-0.548,0.99-0.801c0.279-0.253,0.379-0.435,0.295-0.548
	c-0.143-0.169-0.422-0.146-0.846,0.063c-0.42,0.211-0.855,0.52-1.305,0.929c-0.451,0.406-0.865,0.87-1.244,1.391
	c-0.381,0.52-0.611,0.99-0.695,1.412c0,0.057,0.006,0.119,0.02,0.189s0.021,0.133,0.021,0.189c0,0.31-0.111,0.556-0.338,0.738
	c-0.225,0.183-0.484,0.303-0.779,0.358s-0.568,0.042-0.822-0.042c-0.252-0.085-0.393-0.225-0.422-0.422
	c-0.084-1.068-0.111-2.403-0.084-4.005c0.027-1.602,0.127-3.288,0.297-5.059c0.168-1.77,0.406-3.534,0.715-5.291
	c0.311-1.757,0.711-3.337,1.201-4.743c0.492-1.405,1.076-2.543,1.75-3.415C102.391,1.436,103.166,1,104.035,1
	c0.563,0,0.979,0.296,1.244,0.886c0.268,0.59,0.395,1.37,0.379,2.34c-0.014,0.969-0.16,2.086-0.441,3.351s-0.66,2.579-1.139,3.942
	c-0.479,1.363-1.063,2.727-1.75,4.089c-0.689,1.364-1.439,2.621-2.256,3.774c0,0.393,0,0.786,0,1.18s0.016,0.773,0.041,1.139
	c0.367-0.815,0.83-1.589,1.393-2.319c0.563-0.731,1.139-1.349,1.729-1.855c0.592-0.506,1.16-0.871,1.707-1.097
	c0.549-0.224,1.006-0.239,1.371-0.041c0.168,0.084,0.301,0.287,0.4,0.61c0.098,0.324,0.098,0.725,0,1.202
	c-0.1,0.478-0.338,1.026-0.717,1.644c-0.379,0.619-0.963,1.279-1.75,1.982c-0.195,0.168-0.281,0.33-0.252,0.485
	c0.027,0.154,0.168,0.344,0.422,0.568c0.252,0.197,0.531,0.379,0.844,0.549c0.309,0.168,0.625,0.295,0.947,0.379
	s0.633,0.098,0.928,0.043c0.295-0.058,0.541-0.211,0.736-0.465c0.227-0.281,0.4-0.563,0.527-0.844s0.246-0.563,0.359-0.842
	c0.084-0.311,0.244-0.443,0.484-0.4c0.238,0.041,0.314,0.258,0.23,0.653c-0.113,0.394-0.254,0.758-0.422,1.095
	c-0.168,0.338-0.449,0.731-0.844,1.182c-0.617,0.674-1.361,1.039-2.234,1.096c-0.871,0.057-1.686-0.049-2.445-0.316
	c-0.758-0.267-1.383-0.625-1.875-1.074C101.162,23.485,101.002,23.105,101.17,22.797z M90.504,20.056
	c0.395-0.646,1.012-1.11,1.854-1.391c0.844-0.281,1.672-0.309,2.488-0.084c0.646,0.196,1.139,0.478,1.477,0.843
	c0.336,0.365,0.49,0.717,0.463,1.054c-0.027,0.393-0.189,0.723-0.484,0.991c-0.295,0.267-0.598,0.449-0.906,0.549
	c-0.309,0.098-0.576,0.104-0.801,0.021c-0.227-0.084-0.281-0.267-0.168-0.548c0.225-0.675,0.23-1.23,0.02-1.666
	c-0.211-0.435-0.498-0.541-0.863-0.316c-0.225,0.141-0.422,0.344-0.59,0.611c-0.17,0.268-0.297,0.57-0.381,0.907
	c-0.084,0.337-0.119,0.681-0.104,1.032c0.014,0.352,0.063,0.668,0.146,0.949c0.111,0.338,0.311,0.625,0.59,0.863
	c0.281,0.239,0.605,0.395,0.971,0.464c0.365,0.07,0.752,0.056,1.16-0.042c0.406-0.098,0.777-0.316,1.115-0.652
	c0.619-0.563,1.041-1.209,1.266-1.938c0.029-0.142,0.1-0.246,0.211-0.317c0.113-0.07,0.211-0.091,0.295-0.063
	c0.086,0.027,0.156,0.091,0.211,0.189c0.057,0.099,0.057,0.246,0,0.443c-0.195,0.786-0.533,1.432-1.012,1.939
	c-0.395,0.477-0.885,0.877-1.477,1.201c-0.59,0.322-1.201,0.513-1.834,0.568c-0.633,0.057-1.25-0.027-1.854-0.253
	c-0.605-0.224-1.117-0.632-1.539-1.222c-0.506-0.731-0.738-1.49-0.695-2.277C90.104,21.124,90.252,20.506,90.504,20.056z
	 M82.154,24.23c0.395,0.14,0.816,0.014,1.266-0.379c0.45-0.395,0.787-0.914,1.012-1.561c0.197-0.563,0.219-1.055,0.063-1.476
	c-0.153-0.422-0.428-0.703-0.821-0.843c-0.394-0.141-0.787-0.113-1.181,0.084s-0.702,0.618-0.928,1.265
	c-0.252,0.646-0.322,1.257-0.209,1.834C81.468,23.73,81.734,24.09,82.154,24.23z M84.265,19.171
	c0.421,0.337,0.716,0.773,0.886,1.307c0.056-0.113,0.104-0.197,0.146-0.253c0.043-0.057,0.091-0.113,0.148-0.169
	c0.309-0.225,0.674-0.26,1.097-0.104c0.421,0.154,0.717,0.344,0.885,0.569c0.085,0.113,0.12,0.232,0.104,0.358
	c-0.014,0.126-0.041,0.288-0.084,0.485c-0.043,0.196-0.084,0.429-0.127,0.696c-0.041,0.267-0.035,0.582,0.021,0.947
	c0.027,0.311,0.104,0.549,0.23,0.717c0.127,0.17,0.27,0.274,0.422,0.316c0.154,0.042,0.316,0.028,0.484-0.042
	c0.17-0.069,0.324-0.176,0.465-0.315c0.252-0.31,0.484-0.647,0.695-1.012c0.211-0.367,0.357-0.689,0.443-0.97
	c0.111-0.31,0.285-0.442,0.525-0.401c0.238,0.043,0.301,0.26,0.189,0.654c-0.113,0.393-0.252,0.751-0.422,1.075
	c-0.168,0.323-0.436,0.724-0.801,1.201c-0.395,0.478-0.957,0.808-1.688,0.989c-0.73,0.184-1.488,0.037-2.277-0.441
	c-0.42-0.281-0.701-0.745-0.842-1.393c-0.057,0.113-0.169,0.283-0.338,0.508c-0.309,0.393-0.66,0.723-1.054,0.99
	c-0.394,0.267-0.794,0.449-1.201,0.549c-0.408,0.098-0.808,0.111-1.202,0.041s-0.758-0.23-1.096-0.484
	c-0.646-0.506-0.991-1.209-1.033-2.107c-0.042-0.9,0.246-1.758,0.865-2.573c0.617-0.815,1.369-1.328,2.255-1.539
	C82.852,18.56,83.617,18.693,84.265,19.171z M76.639,17.318c-0.195,0.022-0.4,0.141-0.611,0.03c-0.209-0.112-0.4-0.247-0.568-0.401
	c-0.169-0.155-0.311-0.316-0.422-0.485c-0.112-0.168-0.168-0.323-0.168-0.464c0-0.596,0.527-0.911,1-0.805
	c0.725,0.164,9.545-2.169,10.658-1.929C86.811,13.326,78.725,17.092,76.639,17.318z M74.736,38.27
	c0.252-0.254,0.435-0.627,0.547-1.118c0.113-0.492,0.162-1.068,0.147-1.728c-0.014-0.662-0.063-1.398-0.147-2.214
	s-0.183-1.659-0.295-2.53c-1.489-0.478-2.994-0.877-4.511-1.201c-1.518-0.322-2.915-0.541-4.194-0.653
	c-1.279-0.112-2.369-0.126-3.268-0.042c-0.899,0.084-1.447,0.281-1.644,0.59c-0.225,0.337-0.112,0.844,0.338,1.518
	c0.449,0.676,1.103,1.398,1.96,2.172c0.857,0.772,1.841,1.546,2.951,2.318c1.11,0.773,2.199,1.434,3.267,1.981
	s2.045,0.928,2.93,1.139C73.703,38.711,74.343,38.635,74.736,38.27z M74.904,19.213c0.112-0.168,0.295-0.26,0.547-0.274
	c0.254-0.014,0.507,0.028,0.76,0.127c0.253,0.098,0.464,0.252,0.632,0.463c0.169,0.211,0.226,0.457,0.169,0.738
	c-0.111,0.478-0.169,1.054-0.169,1.728c0,0.675,0.036,1.42,0.106,2.235c0.07,0.814,0.154,1.672,0.252,2.57
	c0.099,0.9,0.19,1.813,0.274,2.741c1.603,0.337,2.986,0.703,4.153,1.097c1.166,0.393,1.904,0.759,2.213,1.096
	c0.506,0.563,0.801,1.181,0.885,1.855c0.084,0.674,0.057,1.258-0.084,1.75c-0.141,0.491-0.33,0.842-0.57,1.053
	c-0.237,0.211-0.428,0.134-0.568-0.232c-0.365-0.898-1.066-1.729-2.107-2.486c-1.039-0.759-2.277-1.434-3.709-2.023
	c0.111,1.602,0.111,3.063,0,4.384c-0.113,1.321-0.479,2.263-1.098,2.825c-0.618,0.533-1.503,0.773-2.655,0.716
	c-1.153-0.056-2.417-0.315-3.795-0.778c-1.377-0.465-2.775-1.076-4.194-1.834c-1.42-0.76-2.692-1.568-3.816-2.425
	c-1.124-0.858-2.017-1.714-2.677-2.571c-0.661-0.857-0.921-1.609-0.78-2.257c0.112-0.59,0.688-1.018,1.729-1.284
	c1.039-0.268,2.326-0.408,3.857-0.422c1.532-0.015,3.225,0.069,5.08,0.252c1.854,0.184,3.653,0.43,5.397,0.738
	c-0.142-0.984-0.269-1.961-0.381-2.93c-0.111-0.971-0.176-1.883-0.189-2.741c-0.014-0.856,0.027-1.644,0.127-2.36
	C74.392,20.246,74.596,19.663,74.904,19.213z"/>
<path fill="#FFFFFF" d="M135.465,28.236c-8.133,3.322-38.959,1.191-51.473,2.13c-15.717,1.181-35.829,2.123-50.926,4.806
	c-8.282,1.471-16.622,3.196-24.608,3.536c-4.02,0.17-6.746-0.19-6.716-1.502c0.197-0.044,0.157-0.012,0.659-0.012
	c9.694,0,30.847-3.919,42.595-5.028c30.13-2.846,51.342-3.667,81.797-3.667C129.676,28.498,132.918,28.236,135.465,28.236"/>
</svg>
